<svg xmlns="http://www.w3.org/2000/svg" viewBox="0 0 100 100">
  <defs>
    <linearGradient id="bgGrad" x1="0%" y1="0%" x2="100%" y2="100%">
      <stop offset="0%" style="stop-color:#7c3aed"/>
      <stop offset="100%" style="stop-color:#06b6d4"/>
    </linearGradient>
    <linearGradient id="rocketGrad" x1="0%" y1="0%" x2="100%" y2="100%">
      <stop offset="0%" style="stop-color:#f97316"/>
      <stop offset="100%" style="stop-color:#ef4444"/>
    </linearGradient>
    <linearGradient id="flameGrad" x1="0%" y1="0%" x2="0%" y2="100%">
      <stop offset="0%" style="stop-color:#fbbf24"/>
      <stop offset="50%" style="stop-color:#f97316"/>
      <stop offset="100%" style="stop-color:#ef4444"/>
    </linearGradient>
  </defs>
  
  <!-- Background circle -->
  <circle cx="50" cy="50" r="48" fill="url(#bgGrad)"/>
  
  <!-- GitHub Octocat - Official style body -->
  <path d="
    M50 10
    C28 10 14 26 14 42
    C14 54 21 64 32 69
    L32 72
    C32 72 30 72 28 74
    C26 76 26 79 28 81
    C30 83 34 83 36 81
    L36 69
    C36 67 37 65 40 64
    C32 62 26 56 26 46
    C26 42 28 38 31 35
    C30 32 30 28 32 24
    C32 24 36 24 42 28
    C45 27 50 27 55 27
    C58 27 62 27 65 28
    C71 24 75 24 75 24
    C77 28 77 32 76 35
    C79 38 81 42 81 46
    C81 56 75 62 67 64
    C70 65 71 67 71 69
    L71 81
    C73 83 77 83 79 81
    C81 79 81 76 79 74
    C77 72 75 72 75 72
    L75 69
    C86 64 93 54 93 42
    C93 26 79 10 50 10
    Z
  " fill="white"/>
  
  <!-- Clean left tentacle/arm -->
  <path d="M32 72 Q28 78 32 85 Q34 88 38 86 L36 81 Q34 78 36 74 Z" fill="white"/>
  
  <!-- Clean right tentacle/arm -->
  <path d="M75 72 Q79 78 75 85 Q73 88 69 86 L71 81 Q73 78 71 74 Z" fill="white"/>
  
  <!-- Rocket being held (positioned at bottom center) -->
  <g transform="translate(50, 80)">
    <!-- Rocket body -->
    <ellipse cx="0" cy="0" rx="6" ry="10" fill="white" stroke="#1a1a24" stroke-width="0.8"/>
    
    <!-- Rocket tip -->
    <path d="M-5 -8 L0 -16 L5 -8 Z" fill="url(#rocketGrad)"/>
    
    <!-- Rocket window -->
    <circle cx="0" cy="-2" r="3" fill="#06b6d4" stroke="#1a1a24" stroke-width="0.5"/>
    <circle cx="-0.5" cy="-2.5" r="0.8" fill="white" opacity="0.7"/>
    
    <!-- Rocket fins -->
    <path d="M-5 6 L-10 12 L-4 8 Z" fill="url(#rocketGrad)"/>
    <path d="M5 6 L10 12 L4 8 Z" fill="url(#rocketGrad)"/>
    
    <!-- Rocket flame -->
    <ellipse cx="0" cy="14" rx="4" ry="4" fill="url(#flameGrad)"/>
    <ellipse cx="0" cy="15" rx="2" ry="2.5" fill="#fbbf24"/>
  </g>
</svg>
